<svg width="78" height="78" viewBox="0 0 78 78" fill="none" xmlns="http://www.w3.org/2000/svg">
<rect width="78" height="78" rx="39" fill="#30534A"/>
<path d="M39 19.5C35.1433 19.5 31.3731 20.6437 28.1664 22.7863C24.9596 24.929 22.4603 27.9745 20.9844 31.5377C19.5084 35.1008 19.1223 39.0216 19.8747 42.8043C20.6271 46.5869 22.4843 50.0615 25.2114 52.7886C27.9386 55.5157 31.4131 57.3729 35.1957 58.1253C38.9784 58.8777 42.8992 58.4916 46.4623 57.0156C50.0255 55.5397 53.071 53.0404 55.2137 49.8336C57.3564 46.6269 58.5 42.8567 58.5 39C58.4945 33.83 56.4383 28.8732 52.7826 25.2174C49.1268 21.5617 44.1701 19.5055 39 19.5ZM55.4344 37.5338C54.9569 37.5112 54.4788 37.5 54 37.5C51.2175 37.5008 48.4473 37.869 45.7613 38.595C45.1064 36.6517 44.2617 34.7777 43.2394 33C45.9056 31.3922 48.3192 29.3988 50.4019 27.0844C53.2917 29.8415 55.0803 33.5554 55.4344 37.5338ZM48.0525 25.2112C46.1789 27.27 44.0133 29.0426 41.625 30.4725C39.6247 27.657 37.1782 25.187 34.3819 23.16C36.6758 22.4903 39.0878 22.3269 41.4511 22.6811C43.8144 23.0353 46.0725 23.8986 48.0694 25.2112H48.0525ZM31.0594 24.54C34.1242 26.4701 36.7962 28.9627 38.9344 31.8862C35.1923 33.611 31.1204 34.5028 27 34.5C25.7283 34.4993 24.4581 34.4148 23.1975 34.2469C24.4518 30.1097 27.273 26.6264 31.0594 24.54ZM22.5 39C22.4999 38.3961 22.5331 37.7927 22.5994 37.1925C24.0573 37.3972 25.5278 37.4999 27 37.5C31.7054 37.5044 36.3519 36.4537 40.5975 34.425C41.5329 36.0403 42.306 37.7442 42.9056 39.5119C41.3122 40.1104 39.7703 40.8378 38.295 41.6869C34.1795 44.0645 30.6507 47.3363 27.9694 51.2606C26.2475 49.7159 24.8705 47.8257 23.9281 45.7132C22.9857 43.6006 22.4991 41.3132 22.5 39ZM30.375 53.0625C32.8094 49.4619 36.0306 46.4619 39.795 44.2894C41.0536 43.563 42.3669 42.9361 43.7231 42.4144C44.1873 44.474 44.4218 46.5787 44.4225 48.69C44.4235 50.7426 44.2041 52.7893 43.7681 54.795C41.5399 55.4681 39.1944 55.6618 36.886 55.3632C34.5776 55.0645 32.3586 54.2805 30.375 53.0625ZM47.0738 53.3869C47.3052 51.8351 47.4218 50.2683 47.4225 48.6994C47.4222 46.2709 47.1422 43.8506 46.5881 41.4862C49.0049 40.8341 51.4968 40.5025 54 40.5C54.475 40.5 54.9506 40.5119 55.4269 40.5356C55.1758 43.1928 54.2848 45.7496 52.8301 47.9873C51.3754 50.225 49.4003 52.077 47.0738 53.385V53.3869Z" fill="#ffffff"/>
</svg>
