<svg width="78" height="78" viewBox="0 0 78 78" fill="none" xmlns="http://www.w3.org/2000/svg">
<rect width="78" height="78" rx="39" fill="#30534A"/>
<path d="M57 24H21C20.6022 24 20.2206 24.158 19.9393 24.4393C19.658 24.7206 19.5 25.1022 19.5 25.5V52.5C19.5 52.8978 19.658 53.2794 19.9393 53.5607C20.2206 53.842 20.6022 54 21 54H57C57.3978 54 57.7794 53.842 58.0607 53.5607C58.342 53.2794 58.5 52.8978 58.5 52.5V25.5C58.5 25.1022 58.342 24.7206 58.0607 24.4393C57.7794 24.158 57.3978 24 57 24ZM31.5 42V36H46.5V42H31.5ZM22.5 42V36H28.5V42H22.5ZM49.5 36H55.5V42H49.5V36ZM55.5 33H40.5V27H55.5V33ZM37.5 27V33H22.5V27H37.5ZM22.5 45H37.5V51H22.5V45ZM40.5 51V45H55.5V51H40.5Z" fill="#ffffff"/>
</svg>
