<svg width="78" height="78" viewBox="0 0 78 78" fill="none" xmlns="http://www.w3.org/2000/svg">
<rect width="78" height="78" rx="39" fill="#30534A"/>
<path d="M60.6206 30.2569L50.7431 20.3794C50.4645 20.1008 50.1338 19.8797 49.7698 19.7289C49.4058 19.5781 49.0156 19.5005 48.6216 19.5005C48.2275 19.5005 47.8374 19.5781 47.4734 19.7289C47.1093 19.8797 46.7786 20.1008 46.5 20.3794L26.3794 40.5C26.1007 40.7786 25.8797 41.1094 25.7289 41.4734C25.5781 41.8374 25.5005 42.2276 25.5005 42.6216C25.5005 43.0156 25.5781 43.4058 25.7289 43.7698C25.8797 44.1338 26.1007 44.4646 26.3794 44.7432L30.2569 48.6207L21.4444 57.4332C21.1629 57.7146 21.0048 58.0964 21.0048 58.4944C21.0048 58.8925 21.1629 59.2742 21.4444 59.5557C21.7258 59.8371 22.1076 59.9952 22.5056 59.9952C22.9037 59.9952 23.2854 59.8371 23.5669 59.5557L32.3794 50.7432L36.2569 54.6207C36.5355 54.8993 36.8662 55.1203 37.2302 55.2712C37.5943 55.422 37.9844 55.4996 38.3784 55.4996C38.7725 55.4996 39.1626 55.422 39.5266 55.2712C39.8907 55.1203 40.2214 54.8993 40.5 54.6207L60.6206 34.5C60.8993 34.2214 61.1203 33.8907 61.2711 33.5267C61.4219 33.1627 61.4995 32.7725 61.4995 32.3785C61.4995 31.9844 61.4219 31.5943 61.2711 31.2303C61.1203 30.8662 60.8993 30.5355 60.6206 30.2569ZM38.3794 52.5L34.5 48.6207L40.0613 43.0613C40.3427 42.7798 40.5008 42.3981 40.5008 42C40.5008 41.602 40.3427 41.2202 40.0613 40.9388C39.7798 40.6573 39.398 40.4992 39 40.4992C38.602 40.4992 38.2202 40.6573 37.9388 40.9388L32.3794 46.5L28.5 42.6207L35.1206 36H45V45.8794L38.3794 52.5ZM58.5 32.3794L48 42.8794V34.5C48 34.1022 47.842 33.7207 47.5607 33.4394C47.2794 33.1581 46.8978 33 46.5 33H38.1206L48.6206 22.5L58.5 32.3775V32.3794ZM26.25 31.5C27.2884 31.5 28.3034 31.1921 29.1667 30.6153C30.0301 30.0384 30.703 29.2184 31.1004 28.2591C31.4977 27.2998 31.6017 26.2442 31.3991 25.2258C31.1966 24.2074 30.6965 23.272 29.9623 22.5377C29.2281 21.8035 28.2926 21.3035 27.2742 21.1009C26.2558 20.8983 25.2002 21.0023 24.2409 21.3997C23.2816 21.797 22.4617 22.4699 21.8848 23.3333C21.3079 24.1966 21 25.2117 21 26.25C21 27.6424 21.5531 28.9778 22.5377 29.9623C23.5223 30.9469 24.8576 31.5 26.25 31.5ZM26.25 24C26.695 24 27.13 24.132 27.5 24.3792C27.87 24.6265 28.1584 24.9779 28.3287 25.389C28.499 25.8001 28.5436 26.2525 28.4568 26.689C28.37 27.1254 28.1557 27.5264 27.841 27.841C27.5263 28.1557 27.1254 28.37 26.689 28.4568C26.2525 28.5436 25.8001 28.4991 25.389 28.3288C24.9778 28.1585 24.6264 27.8701 24.3792 27.5001C24.132 27.1301 24 26.695 24 26.25C24 25.6533 24.2371 25.081 24.659 24.659C25.081 24.2371 25.6533 24 26.25 24Z" fill="#ffffff"/>
</svg>
