<svg width="78" height="78" viewBox="0 0 78 78" fill="none" xmlns="http://www.w3.org/2000/svg">
<rect width="78" height="78" rx="39" fill="#30534A"/>
<path d="M44.7488 51.8323L38.7488 60.8323C38.6394 60.9963 38.4989 61.1371 38.3351 61.2468C38.1714 61.3565 37.9876 61.4328 37.7943 61.4715C37.404 61.5495 36.9987 61.4693 36.6675 61.2486C36.3363 61.0278 36.1064 60.6844 36.0283 60.2941C35.9503 59.9038 36.0305 59.4985 36.2512 59.1673L42.2512 50.1673C42.472 49.8361 42.8154 49.6062 43.2057 49.5281C43.596 49.4501 44.0013 49.5303 44.3325 49.7511C44.6637 49.9718 44.8936 50.3152 44.9717 50.7055C45.0497 51.0958 44.9695 51.5011 44.7488 51.8323ZM58.5 32.2498C58.496 36.0279 56.9934 39.6502 54.3219 42.3217C51.6504 44.9932 48.0281 46.4958 44.25 46.4998H39.8025L34.2488 54.8323C34.1394 54.9963 33.9989 55.1371 33.8351 55.2468C33.6714 55.3565 33.4876 55.4328 33.2943 55.4715C33.1011 55.5101 32.9021 55.5103 32.7087 55.4721C32.5154 55.4338 32.3315 55.3579 32.1675 55.2486C32.0035 55.1392 31.8627 54.9987 31.753 54.8349C31.6433 54.6712 31.567 54.4874 31.5283 54.2941C31.4897 54.1009 31.4895 53.9019 31.5277 53.7085C31.566 53.5152 31.6419 53.3313 31.7512 53.1673L36.1969 46.4998H29.25C26.6641 46.4998 24.1842 45.4726 22.3557 43.6441C20.5272 41.8156 19.5 39.3357 19.5 36.7498C19.5 34.1639 20.5272 31.684 22.3557 29.8555C24.1842 28.027 26.6641 26.9998 29.25 26.9998C29.8105 27.0003 30.37 27.048 30.9225 27.1423C32.1188 24.035 34.3643 21.444 37.2701 19.8184C40.1759 18.1927 43.5588 17.6346 46.8328 18.241C50.1067 18.8474 53.0655 20.5799 55.1963 23.1384C57.3271 25.6969 58.4959 28.9202 58.5 32.2498ZM55.5 32.2498C55.488 29.3287 54.3414 26.5265 52.3022 24.4349C50.263 22.3432 47.4908 21.1259 44.5709 21.0397C41.651 20.9536 38.8119 22.0054 36.653 23.9732C34.494 25.941 33.1842 28.6707 33 31.5861C32.9887 31.783 32.9387 31.9759 32.8528 32.1535C32.767 32.3312 32.647 32.4902 32.4997 32.6215C32.2022 32.8866 31.8116 33.0227 31.4137 32.9998C31.0159 32.9769 30.6435 32.797 30.3784 32.4995C30.1132 32.202 29.9771 31.8114 30 31.4136C30.0262 30.9561 30.0744 30.5042 30.1444 30.0579C29.8478 30.0199 29.549 30.0004 29.25 29.9998C27.4598 29.9998 25.7429 30.711 24.477 31.9768C23.2112 33.2427 22.5 34.9596 22.5 36.7498C22.5 38.54 23.2112 40.2569 24.477 41.5228C25.7429 42.7886 27.4598 43.4998 29.25 43.4998H44.25C47.2326 43.4963 50.0921 42.31 52.2011 40.2009C54.3101 38.0919 55.4965 35.2324 55.5 32.2498Z" fill="#ffffff"/>
</svg>
