<svg width="78" height="78" viewBox="0 0 78 78" fill="none" xmlns="http://www.w3.org/2000/svg">
<rect width="78" height="78" rx="39" fill="#30534A"/>
<g clip-path="url(#clip0_248_361)">
<path d="M45.7504 30C46.7887 30 47.8038 29.6921 48.6671 29.1152C49.5305 28.5383 50.2034 27.7184 50.6007 26.7591C50.9981 25.7998 51.1021 24.7442 50.8995 23.7258C50.6969 22.7074 50.1969 21.7719 49.4627 21.0377C48.7285 20.3035 47.793 19.8035 46.7746 19.6009C45.7562 19.3983 44.7006 19.5023 43.7413 19.8996C42.782 20.297 41.962 20.9699 41.3852 21.8333C40.8083 22.6966 40.5004 23.7117 40.5004 24.75C40.5004 26.1424 41.0535 27.4777 42.0381 28.4623C43.0226 29.4469 44.358 30 45.7504 30ZM45.7504 22.5C46.1954 22.5 46.6304 22.632 47.0004 22.8792C47.3704 23.1264 47.6588 23.4778 47.8291 23.889C47.9994 24.3001 48.044 24.7525 47.9571 25.189C47.8703 25.6254 47.656 26.0263 47.3414 26.341C47.0267 26.6557 46.6258 26.87 46.1893 26.9568C45.7529 27.0436 45.3005 26.999 44.8893 26.8287C44.4782 26.6584 44.1268 26.37 43.8796 26C43.6323 25.63 43.5004 25.195 43.5004 24.75C43.5004 24.1533 43.7374 23.581 44.1594 23.159C44.5813 22.7371 45.1536 22.5 45.7504 22.5ZM62.7904 51.735L52.5604 34.47C52.2965 34.0202 51.9192 33.6477 51.466 33.3897C51.0129 33.1317 50.4999 32.9973 49.9785 33C49.4573 32.9973 48.9446 33.1317 48.4917 33.3897C48.0389 33.6477 47.6619 34.0203 47.3985 34.47L42.4935 42.75L34.086 28.4813C33.8211 28.031 33.4432 27.6577 32.9897 27.3984C32.5362 27.139 32.0228 27.0026 31.5004 27.0026C30.978 27.0026 30.4646 27.139 30.0111 27.3984C29.5576 27.6577 29.1797 28.031 28.9148 28.4813L15.2085 51.7388C15.0743 51.9665 15.0028 52.2257 15.001 52.4901C14.9993 52.7544 15.0674 53.0146 15.1985 53.2441C15.3297 53.4736 15.5192 53.6644 15.7478 53.7972C15.9764 53.9299 16.236 53.9999 16.5004 54H61.5004C61.7651 54 62.0252 53.9298 62.254 53.7968C62.4829 53.6637 62.6725 53.4724 62.8035 53.2424C62.9346 53.0123 63.0024 52.7516 63.0001 52.4869C62.9977 52.2222 62.9254 51.9627 62.7904 51.735ZM31.5004 30L35.9198 37.5H27.081L31.5004 30ZM19.1254 51L25.3129 40.5H37.6879L41.2016 46.4625L43.8754 51H19.1254ZM47.3573 51L44.2335 45.6975L49.9785 36L58.8754 51H47.3573Z" fill="#ffffff"/>
</g>
<defs>
<clipPath id="clip0_248_361">
<rect width="48" height="48" fill="white" transform="translate(15 15)"/>
</clipPath>
</defs>
</svg>
