<svg width="78" height="78" viewBox="0 0 78 78" fill="none" xmlns="http://www.w3.org/2000/svg">
<rect width="78" height="78" rx="39" fill="#30534A"/>
<path d="M59.2354 52.3125C59.0632 52.4096 58.8734 52.4717 58.6771 52.4952C58.4808 52.5187 58.2818 52.5032 58.0915 52.4495C57.9013 52.3959 57.7235 52.3051 57.5684 52.1825C57.4133 52.0598 57.284 51.9078 57.1879 51.735L44.1229 28.5H40.5004V30C40.5004 30.3978 40.3423 30.7794 40.061 31.0607C39.7797 31.342 39.3982 31.5 39.0004 31.5C38.6026 31.5 38.221 31.342 37.9397 31.0607C37.6584 30.7794 37.5004 30.3978 37.5004 30V28.5H33.8779L20.8129 51.735C20.618 52.0831 20.2927 52.3395 19.9087 52.4478C19.5248 52.5561 19.1135 52.5074 18.7654 52.3125C18.4173 52.1176 18.1609 51.7923 18.0526 51.4084C17.9443 51.0244 17.993 50.6131 18.1879 50.265L30.4354 28.5H19.5004C19.1026 28.5 18.721 28.342 18.4397 28.0607C18.1584 27.7794 18.0004 27.3978 18.0004 27C18.0004 26.6022 18.1584 26.2206 18.4397 25.9393C18.721 25.658 19.1026 25.5 19.5004 25.5H58.5004C58.8982 25.5 59.2797 25.658 59.561 25.9393C59.8423 26.2206 60.0004 26.6022 60.0004 27C60.0004 27.3978 59.8423 27.7794 59.561 28.0607C59.2797 28.342 58.8982 28.5 58.5004 28.5H47.5654L59.8129 50.265C59.91 50.4372 59.9721 50.6269 59.9956 50.8232C60.0191 51.0195 60.0036 51.2186 59.9499 51.4088C59.8962 51.5991 59.8055 51.7769 59.6828 51.932C59.5602 52.0871 59.4082 52.2164 59.2354 52.3125ZM39.0004 36C38.6026 36 38.221 36.158 37.9397 36.4393C37.6584 36.7206 37.5004 37.1022 37.5004 37.5V40.5C37.5004 40.8978 37.6584 41.2794 37.9397 41.5607C38.221 41.842 38.6026 42 39.0004 42C39.3982 42 39.7797 41.842 40.061 41.5607C40.3423 41.2794 40.5004 40.8978 40.5004 40.5V37.5C40.5004 37.1022 40.3423 36.7206 40.061 36.4393C39.7797 36.158 39.3982 36 39.0004 36ZM39.0004 46.5C38.6026 46.5 38.221 46.658 37.9397 46.9393C37.6584 47.2206 37.5004 47.6022 37.5004 48V51C37.5004 51.3978 37.6584 51.7794 37.9397 52.0607C38.221 52.342 38.6026 52.5 39.0004 52.5C39.3982 52.5 39.7797 52.342 40.061 52.0607C40.3423 51.7794 40.5004 51.3978 40.5004 51V48C40.5004 47.6022 40.3423 47.2206 40.061 46.9393C39.7797 46.658 39.3982 46.5 39.0004 46.5Z" fill="#ffffff"/>
</svg>
