<svg width="78" height="78" viewBox="0 0 78 78" fill="none" xmlns="http://www.w3.org/2000/svg">
<rect width="78" height="78" rx="39" fill="#30534A"/>
<path d="M54 21H24C23.2044 21 22.4413 21.3161 21.8787 21.8787C21.3161 22.4413 21 23.2044 21 24V54C21 54.7957 21.3161 55.5587 21.8787 56.1213C22.4413 56.6839 23.2044 57 24 57H54C54.7957 57 55.5587 56.6839 56.1213 56.1213C56.6839 55.5587 57 54.7957 57 54V24C57 23.2044 56.6839 22.4413 56.1213 21.8787C55.5587 21.3161 54.7957 21 54 21ZM31.5 45C31.7967 45 32.0867 45.088 32.3334 45.2528C32.58 45.4176 32.7723 45.6519 32.8858 45.926C32.9994 46.2001 33.0291 46.5017 32.9712 46.7926C32.9133 47.0836 32.7704 47.3509 32.5607 47.5607C32.3509 47.7704 32.0836 47.9133 31.7926 47.9712C31.5017 48.0291 31.2001 47.9994 30.926 47.8858C30.6519 47.7723 30.4176 47.58 30.2528 47.3334C30.088 47.0867 30 46.7967 30 46.5C30 46.1022 30.158 45.7206 30.4393 45.4393C30.7206 45.158 31.1022 45 31.5 45ZM24 24H30V42.2588C28.9992 42.6126 28.1557 43.3089 27.6186 44.2245C27.0814 45.1401 26.8853 46.2161 27.0648 47.2623C27.2443 48.3086 27.7879 49.2577 28.5995 49.9419C29.4111 50.6261 30.4385 51.0014 31.5 51.0014C32.5615 51.0014 33.5889 50.6261 34.4005 49.9419C35.2121 49.2577 35.7557 48.3086 35.9352 47.2623C36.1147 46.2161 35.9186 45.1401 35.3814 44.2245C34.8443 43.3089 34.0008 42.6126 33 42.2588V36.6206L42 45.6206V54H24V24ZM54 54H45V45C45.0002 44.803 44.9615 44.6078 44.8862 44.4257C44.8109 44.2436 44.7005 44.0782 44.5613 43.9387L33 32.3794V24H39V28.5C38.9998 28.697 39.0385 28.8922 39.1138 29.0743C39.1891 29.2564 39.2995 29.4218 39.4387 29.5613L42.4387 32.5613C42.1482 33.1662 41.9982 33.8289 42 34.5C42 35.39 42.2639 36.26 42.7584 37.0001C43.2529 37.7401 43.9557 38.3169 44.7779 38.6575C45.6002 38.9981 46.505 39.0872 47.3779 38.9135C48.2508 38.7399 49.0526 38.3113 49.682 37.682C50.3113 37.0526 50.7399 36.2508 50.9135 35.3779C51.0872 34.505 50.9981 33.6002 50.6575 32.7779C50.3169 31.9557 49.7401 31.2529 49.0001 30.7584C48.26 30.2639 47.39 30 46.5 30C45.8288 29.9988 45.166 30.1495 44.5613 30.4406L42 27.8794V24H54V54ZM46.5 33C46.7967 33 47.0867 33.088 47.3334 33.2528C47.58 33.4176 47.7723 33.6519 47.8858 33.926C47.9994 34.2001 48.0291 34.5017 47.9712 34.7926C47.9133 35.0836 47.7704 35.3509 47.5607 35.5607C47.3509 35.7704 47.0836 35.9133 46.7926 35.9712C46.5017 36.0291 46.2001 35.9994 45.926 35.8858C45.6519 35.7723 45.4176 35.58 45.2528 35.3334C45.088 35.0867 45 34.7967 45 34.5C45 34.1022 45.158 33.7206 45.4393 33.4393C45.7206 33.158 46.1022 33 46.5 33Z" fill="#ffffff"/>
</svg>
