<svg width="48" height="48" viewBox="0 0 48 48" fill="none" xmlns="http://www.w3.org/2000/svg">
<path d="M45 34.5002H43.5V10.8565L45.3131 10.4665C45.5099 10.4296 45.6973 10.3536 45.8643 10.2432C46.0313 10.1327 46.1744 9.98991 46.2854 9.82323C46.3963 9.65655 46.4727 9.46936 46.5102 9.27267C46.5476 9.07599 46.5453 8.8738 46.5034 8.67802C46.4614 8.48225 46.3807 8.29685 46.266 8.13275C46.1513 7.96866 46.0049 7.82919 45.8354 7.72257C45.666 7.61595 45.4769 7.54433 45.2793 7.51194C45.0817 7.47956 44.8796 7.48705 44.685 7.53398L2.685 16.534C2.32317 16.6121 2.00299 16.8212 1.78604 17.1211C1.56909 17.421 1.4707 17.7905 1.50979 18.1586C1.54888 18.5267 1.72269 18.8674 1.99779 19.115C2.27288 19.3627 2.62984 19.4999 3 19.5002C3.10651 19.5 3.21271 19.4887 3.31688 19.4665L4.5 19.2134V34.5002H3C2.60218 34.5002 2.22064 34.6583 1.93934 34.9396C1.65804 35.2209 1.5 35.6024 1.5 36.0002C1.5 36.3981 1.65804 36.7796 1.93934 37.0609C2.22064 37.3422 2.60218 37.5002 3 37.5002H45C45.3978 37.5002 45.7794 37.3422 46.0607 37.0609C46.342 36.7796 46.5 36.3981 46.5 36.0002C46.5 35.6024 46.342 35.2209 46.0607 34.9396C45.7794 34.6583 45.3978 34.5002 45 34.5002ZM7.5 18.5627L40.5 11.4996V34.5002H36V24.0002C36 23.6024 35.842 23.2209 35.5607 22.9396C35.2794 22.6583 34.8978 22.5002 34.5 22.5002H13.5C13.1022 22.5002 12.7206 22.6583 12.4393 22.9396C12.158 23.2209 12 23.6024 12 24.0002V34.5002H7.5V18.5627ZM33 28.5002H15V25.5002H33V28.5002ZM15 31.5002H33V34.5002H15V31.5002Z" fill="#ffffff"/>
</svg>
