<svg width="40" height="40" viewBox="0 0 40 40" fill="none" xmlns="http://www.w3.org/2000/svg">
<path d="M37.5 18.75H33.6922C33.3959 15.5502 31.9899 12.5547 29.7176 10.2824C27.4453 8.0101 24.4498 6.60407 21.25 6.30781V2.5C21.25 2.16848 21.1183 1.85054 20.8839 1.61612C20.6495 1.3817 20.3315 1.25 20 1.25C19.6685 1.25 19.3505 1.3817 19.1161 1.61612C18.8817 1.85054 18.75 2.16848 18.75 2.5V6.30781C15.5502 6.60407 12.5547 8.0101 10.2824 10.2824C8.0101 12.5547 6.60407 15.5502 6.30781 18.75H2.5C2.16848 18.75 1.85054 18.8817 1.61612 19.1161C1.3817 19.3505 1.25 19.6685 1.25 20C1.25 20.3315 1.3817 20.6495 1.61612 20.8839C1.85054 21.1183 2.16848 21.25 2.5 21.25H6.30781C6.60407 24.4498 8.0101 27.4453 10.2824 29.7176C12.5547 31.9899 15.5502 33.3959 18.75 33.6922V37.5C18.75 37.8315 18.8817 38.1495 19.1161 38.3839C19.3505 38.6183 19.6685 38.75 20 38.75C20.3315 38.75 20.6495 38.6183 20.8839 38.3839C21.1183 38.1495 21.25 37.8315 21.25 37.5V33.6922C24.4498 33.3959 27.4453 31.9899 29.7176 29.7176C31.9899 27.4453 33.3959 24.4498 33.6922 21.25H37.5C37.8315 21.25 38.1495 21.1183 38.3839 20.8839C38.6183 20.6495 38.75 20.3315 38.75 20C38.75 19.6685 38.6183 19.3505 38.3839 19.1161C38.1495 18.8817 37.8315 18.75 37.5 18.75ZM20 31.25C17.775 31.25 15.5999 30.5902 13.7498 29.354C11.8998 28.1179 10.4578 26.3609 9.60636 24.3052C8.75487 22.2495 8.53208 19.9875 8.96617 17.8052C9.40025 15.6229 10.4717 13.6184 12.045 12.045C13.6184 10.4717 15.6229 9.40025 17.8052 8.96617C19.9875 8.53208 22.2495 8.75487 24.3052 9.60636C26.3609 10.4578 28.1179 11.8998 29.354 13.7498C30.5902 15.5999 31.25 17.775 31.25 20C31.2467 22.9827 30.0604 25.8422 27.9513 27.9513C25.8422 30.0604 22.9827 31.2467 20 31.25ZM20 13.75C18.7639 13.75 17.5555 14.1166 16.5277 14.8033C15.4999 15.4901 14.6988 16.4662 14.2258 17.6082C13.7527 18.7503 13.6289 20.0069 13.8701 21.2193C14.1112 22.4317 14.7065 23.5453 15.5806 24.4194C16.4547 25.2935 17.5683 25.8888 18.7807 26.1299C19.9931 26.3711 21.2497 26.2473 22.3918 25.7742C23.5338 25.3012 24.5099 24.5001 25.1967 23.4723C25.8834 22.4445 26.25 21.2361 26.25 20C26.25 18.3424 25.5915 16.7527 24.4194 15.5806C23.2473 14.4085 21.6576 13.75 20 13.75ZM20 23.75C19.2583 23.75 18.5333 23.5301 17.9166 23.118C17.2999 22.706 16.8193 22.1203 16.5355 21.4351C16.2516 20.7498 16.1774 19.9958 16.3221 19.2684C16.4667 18.541 16.8239 17.8728 17.3483 17.3483C17.8728 16.8239 18.541 16.4667 19.2684 16.3221C19.9958 16.1774 20.7498 16.2516 21.4351 16.5355C22.1203 16.8193 22.706 17.2999 23.118 17.9166C23.5301 18.5333 23.75 19.2583 23.75 20C23.75 20.9946 23.3549 21.9484 22.6517 22.6517C21.9484 23.3549 20.9946 23.75 20 23.75Z" fill="#FFFFFF"/>
</svg>
