<svg width="78" height="78" viewBox="0 0 78 78" fill="none" xmlns="http://www.w3.org/2000/svg">
<rect width="78" height="78" rx="39" fill="#FFFFFF"/>
<path d="M55.8422 32.906L39.5922 24.156C39.4102 24.0581 39.2067 24.0068 39 24.0068C38.7933 24.0068 38.5898 24.0581 38.4078 24.156L22.1578 32.906C21.96 33.0124 21.7945 33.1701 21.6788 33.3626C21.563 33.5551 21.5013 33.7752 21.5 33.9998V43.9998C21.4999 44.2257 21.561 44.4474 21.6768 44.6414C21.7926 44.8353 21.9589 44.9943 22.1578 45.1013L38.4078 53.8513C38.5898 53.9492 38.7933 54.0005 39 54.0005C39.2067 54.0005 39.4102 53.9492 39.5922 53.8513L55.8422 45.1013C56.0411 44.9943 56.2074 44.8353 56.3232 44.6414C56.439 44.4474 56.5001 44.2257 56.5 43.9998V33.9998C56.4987 33.7752 56.437 33.5551 56.3212 33.3626C56.2055 33.1701 56.04 33.0124 55.8422 32.906ZM54 41.9076L48.6016 38.9998L54 36.0919V41.9076ZM45.9641 37.5794L40.25 34.5029V27.3419L52.6141 33.9998L45.9641 37.5794ZM39 41.3294L34.6719 38.9998L39 36.6701L43.3281 38.9998L39 41.3294ZM37.75 27.3419V34.5029L32.0359 37.5794L25.3859 33.9998L37.75 27.3419ZM24 36.0919L29.3984 38.9998L24 41.9076V36.0919ZM32.0359 40.4201L37.75 43.4966V50.6576L25.3859 43.9998L32.0359 40.4201ZM40.25 50.6576V43.4966L45.9641 40.4201L52.6141 43.9998L40.25 50.6576Z" fill="#30534A"/>
</svg>
