<svg width="48" height="48" viewBox="0 0 48 48" fill="none" xmlns="http://www.w3.org/2000/svg">
<path d="M45.3281 9.62249C44.9645 9.34115 44.5406 9.14785 44.0897 9.05774C43.6389 8.96763 43.1732 8.98316 42.7294 9.10312L42.0769 9.27937C38.5519 10.23 31.9894 12 24 12C16.0106 12 9.44812 10.23 5.92313 9.27937L5.27063 9.10312C4.8266 8.9851 4.36139 8.97064 3.91089 9.06086C3.46039 9.15108 3.03663 9.34357 2.6723 9.62348C2.30796 9.90339 2.01278 10.2632 1.80953 10.6753C1.60628 11.0873 1.50038 11.5405 1.5 12V36C1.5 36.7956 1.81607 37.5587 2.37868 38.1213C2.94129 38.6839 3.70435 39 4.5 39C4.76462 38.9999 5.0281 38.9652 5.28375 38.8969L5.88 38.7356C9.39937 37.7794 15.9694 36 24 36C32.0306 36 38.6006 37.7794 42.1294 38.7356L42.7256 38.8969C43.1699 39.0156 43.6355 39.0305 44.0865 38.9406C44.5375 38.8507 44.9618 38.6584 45.3266 38.3784C45.6914 38.0984 45.9869 37.7383 46.1904 37.3259C46.3938 36.9135 46.4998 36.4599 46.5 36V12C46.5013 11.5402 46.3961 11.0863 46.1928 10.6738C45.9895 10.2614 45.6936 9.90157 45.3281 9.62249ZM5.14125 12.1744C8.80125 13.1625 15.6131 15 24 15C32.3869 15 39.1987 13.1625 42.8587 12.1744L43.5 12V34.2675L32.6119 23.3794C32.3333 23.1007 32.0025 22.8797 31.6385 22.7289C31.2745 22.5781 30.8843 22.5004 30.4903 22.5004C30.0963 22.5004 29.7061 22.5781 29.3421 22.7289C28.9781 22.8797 28.6473 23.1007 28.3688 23.3794L24.6188 27.1294L16.3688 18.8794C15.8062 18.3172 15.0434 18.0014 14.2481 18.0014C13.4528 18.0014 12.6901 18.3172 12.1275 18.8794L4.5 26.5069V12L5.14125 12.1744ZM40.095 35.1019C37.0715 34.3447 34.0027 33.7811 30.9075 33.4144L26.7431 29.25L30.4931 25.5L40.095 35.1019ZM5.08687 35.8387L4.5 36V30.75L14.25 21L26.2969 33.0469C25.5469 33.0169 24.7812 33.0012 24 33C15.5625 33 8.49 34.9181 5.08687 35.8387Z" fill="#ffffff"/>
</svg>
