<svg width="21" height="21" viewBox="0 0 21 21" fill="none" xmlns="http://www.w3.org/2000/svg">
<path d="M18.1545 4.18144C18.136 3.8767 18.0066 3.58927 17.7907 3.37338C17.5748 3.1575 17.2874 3.02809 16.9826 3.00957C15.9998 2.95097 13.4881 3.04082 11.4037 5.12441L11.0326 5.50019H6.4756C6.31081 5.49926 6.14749 5.53111 5.99513 5.59388C5.84277 5.65665 5.70441 5.74909 5.5881 5.86582L2.90841 8.54707C2.74407 8.71129 2.62876 8.91807 2.5754 9.14419C2.52205 9.37031 2.53277 9.60682 2.60636 9.82719C2.67995 10.0476 2.8135 10.2431 2.99202 10.3917C3.17054 10.5404 3.38696 10.6364 3.617 10.6689L6.62247 11.0885L10.0764 14.5424L10.4959 17.5494C10.5282 17.7795 10.6241 17.9959 10.773 18.1743C10.9218 18.3527 11.1175 18.4858 11.3381 18.5588C11.4666 18.6017 11.6011 18.6236 11.7365 18.6236C11.9005 18.6239 12.063 18.5918 12.2145 18.529C12.366 18.4663 12.5036 18.3742 12.6193 18.258L15.3006 15.5783C15.4173 15.462 15.5098 15.3236 15.5725 15.1713C15.6353 15.0189 15.6671 14.8556 15.6662 14.6908V10.1338L16.0389 9.76113C18.1233 7.67675 18.2131 5.16504 18.1545 4.18144ZM6.4756 6.75019H9.78263L6.69435 9.83769L3.79122 9.433L6.4756 6.75019ZM12.2889 6.01191C12.8894 5.40764 13.612 4.93848 14.4084 4.63575C15.2047 4.33303 16.0565 4.20371 16.9068 4.25644C16.9616 5.10721 16.8336 5.95984 16.5315 6.75704C16.2294 7.55424 15.7601 8.27753 15.1553 8.87832L10.6662 13.3658L7.8006 10.5002L12.2889 6.01191ZM14.4162 14.6908L11.7342 17.3752L11.3287 14.4713L14.4162 11.3838V14.6908ZM8.62247 15.433C8.27091 16.2033 7.09513 18.0002 3.79122 18.0002C3.62546 18.0002 3.46649 17.9343 3.34928 17.8171C3.23207 17.6999 3.16622 17.541 3.16622 17.3752C3.16622 14.0713 4.9631 12.8955 5.73341 12.5432C5.8081 12.5091 5.88877 12.4901 5.9708 12.4872C6.05284 12.4843 6.13465 12.4976 6.21155 12.5263C6.28844 12.5551 6.35893 12.5987 6.41898 12.6546C6.47903 12.7106 6.52747 12.7778 6.56153 12.8525C6.5956 12.9272 6.61461 13.0079 6.6175 13.0899C6.62039 13.172 6.60709 13.2538 6.57836 13.3307C6.54963 13.4076 6.50604 13.4781 6.45007 13.5381C6.3941 13.5982 6.32685 13.6466 6.25216 13.6807C5.74982 13.9096 4.64122 14.6463 4.44591 16.7205C6.52013 16.5252 7.25841 15.4166 7.48575 14.9143C7.51981 14.8396 7.56825 14.7723 7.6283 14.7163C7.68836 14.6604 7.75884 14.6168 7.83574 14.5881C7.91264 14.5593 7.99444 14.546 8.07648 14.5489C8.15852 14.5518 8.23919 14.5708 8.31388 14.6049C8.38857 14.6389 8.45582 14.6874 8.51179 14.7474C8.56775 14.8075 8.61135 14.878 8.64008 14.9549C8.6688 15.0318 8.6821 15.1136 8.67922 15.1956C8.67633 15.2777 8.65731 15.3583 8.62325 15.433H8.62247Z" fill="white"/>
</svg>
