<svg width="78" height="78" viewBox="0 0 78 78" fill="none" xmlns="http://www.w3.org/2000/svg">
<rect width="78" height="78" rx="39" fill="#FFFFFF"/>
<path d="M50.25 31.5001C49.4714 31.499 48.7025 31.6727 48 32.0082V26.2501C47.9998 25.3403 47.7631 24.4462 47.3132 23.6554C46.8634 22.8646 46.2157 22.2043 45.4338 21.7392C44.6518 21.2742 43.7624 21.0203 42.8528 21.0024C41.9432 20.9846 41.0446 21.2035 40.245 21.6376C39.8601 20.4481 39.0633 19.435 37.998 18.7805C36.9327 18.1261 35.6688 17.8734 34.4337 18.0678C33.1987 18.2622 32.0735 18.8909 31.2608 19.8409C30.448 20.791 30.0009 21.9998 30 23.2501V24.5082C29.2975 24.1727 28.5286 23.999 27.75 24.0001C26.3576 24.0001 25.0223 24.5532 24.0377 25.5378C23.0531 26.5224 22.5 27.8577 22.5 29.2501V43.5001C22.5 47.8762 24.2384 52.073 27.3327 55.1674C30.4271 58.2617 34.6239 60.0001 39 60.0001C43.3761 60.0001 47.5729 58.2617 50.6673 55.1674C53.7616 52.073 55.5 47.8762 55.5 43.5001V36.7501C55.5 35.3577 54.9469 34.0224 53.9623 33.0378C52.9777 32.0532 51.6424 31.5001 50.25 31.5001ZM52.5 43.5001C52.5 47.0805 51.0777 50.5143 48.5459 53.046C46.0142 55.5778 42.5804 57.0001 39 57.0001C35.4196 57.0001 31.9858 55.5778 29.4541 53.046C26.9223 50.5143 25.5 47.0805 25.5 43.5001V29.2501C25.5 28.6534 25.7371 28.0811 26.159 27.6591C26.581 27.2372 27.1533 27.0001 27.75 27.0001C28.3467 27.0001 28.919 27.2372 29.341 27.6591C29.7629 28.0811 30 28.6534 30 29.2501V36.0001C30 36.3979 30.158 36.7795 30.4393 37.0608C30.7206 37.3421 31.1022 37.5001 31.5 37.5001C31.8978 37.5001 32.2794 37.3421 32.5607 37.0608C32.842 36.7795 33 36.3979 33 36.0001V23.2501C33 22.6534 33.2371 22.0811 33.659 21.6591C34.081 21.2372 34.6533 21.0001 35.25 21.0001C35.8467 21.0001 36.419 21.2372 36.841 21.6591C37.2629 22.0811 37.5 22.6534 37.5 23.2501V34.5001C37.5 34.8979 37.658 35.2795 37.9393 35.5608C38.2206 35.8421 38.6022 36.0001 39 36.0001C39.3978 36.0001 39.7794 35.8421 40.0607 35.5608C40.342 35.2795 40.5 34.8979 40.5 34.5001V26.2501C40.5 25.6534 40.7371 25.0811 41.159 24.6591C41.581 24.2372 42.1533 24.0001 42.75 24.0001C43.3467 24.0001 43.919 24.2372 44.341 24.6591C44.7629 25.0811 45 25.6534 45 26.2501V37.5001C45 37.8979 45.158 38.2795 45.4393 38.5608C45.7206 38.8421 46.1022 39.0001 46.5 39.0001C46.8978 39.0001 47.2794 38.8421 47.5607 38.5608C47.842 38.2795 48 37.8979 48 37.5001V36.7501C48 36.1534 48.2371 35.5811 48.659 35.1591C49.081 34.7372 49.6533 34.5001 50.25 34.5001C50.8467 34.5001 51.419 34.7372 51.841 35.1591C52.2629 35.5811 52.5 36.1534 52.5 36.7501V43.5001ZM41.25 46.5001C41.25 46.9451 41.118 47.3801 40.8708 47.7501C40.6236 48.1201 40.2722 48.4085 39.861 48.5788C39.4499 48.7491 38.9975 48.7937 38.561 48.7069C38.1246 48.6201 37.7237 48.4058 37.409 48.0911C37.0943 47.7764 36.88 47.3755 36.7932 46.9391C36.7064 46.5026 36.751 46.0502 36.9213 45.6391C37.0916 45.2279 37.38 44.8765 37.75 44.6293C38.12 44.3821 38.555 44.2501 39 44.2501C39.5967 44.2501 40.169 44.4872 40.591 44.9091C41.0129 45.3311 41.25 45.9034 41.25 46.5001ZM39 39.0001C32.1525 39.0001 28.7981 45.5514 28.6575 45.8289C28.5532 46.0373 28.4989 46.2671 28.4989 46.5001C28.4989 46.7331 28.5532 46.963 28.6575 47.1714C28.7981 47.4489 32.1525 54.0001 39 54.0001C45.8475 54.0001 49.2019 47.4489 49.3425 47.1714C49.4468 46.963 49.5011 46.7331 49.5011 46.5001C49.5011 46.2671 49.4468 46.0373 49.3425 45.8289C49.2019 45.5514 45.8475 39.0001 39 39.0001ZM39 51.0001C35.1319 51.0001 32.6625 47.9026 31.7438 46.5001C32.6625 45.0976 35.1319 42.0001 39 42.0001C42.8681 42.0001 45.3394 45.0995 46.2562 46.5001C45.3375 47.9026 42.8681 51.0001 39 51.0001Z" fill="#30534A"/>
</svg>
