<svg width="78" height="78" viewBox="0 0 78 78" fill="none" xmlns="http://www.w3.org/2000/svg">
<rect width="78" height="78" rx="39" fill="#30534A"/>
<path d="M58.5 51.0001H52.5V46.5001H57C57.2279 46.5 57.4529 46.4481 57.6577 46.3481C57.8625 46.2481 58.0419 46.1028 58.1821 45.9231C58.3224 45.7435 58.4199 45.5342 58.4671 45.3112C58.5144 45.0883 58.5103 44.8574 58.455 44.6363L52.455 20.6363C52.3737 20.312 52.1864 20.0241 51.9228 19.8184C51.6592 19.6127 51.3344 19.501 51 19.501C50.6656 19.501 50.3408 19.6127 50.0772 19.8184C49.8136 20.0241 49.6263 20.312 49.545 20.6363L43.545 44.6363C43.4897 44.8574 43.4856 45.0883 43.5329 45.3112C43.5801 45.5342 43.6776 45.7435 43.8179 45.9231C43.9581 46.1028 44.1375 46.2481 44.3423 46.3481C44.5471 46.4481 44.7721 46.5 45 46.5001H49.5V51.0001H37.5V48.0001H39C39.3978 48.0001 39.7794 47.842 40.0607 47.5607C40.342 47.2794 40.5 46.8979 40.5 46.5001C40.5 46.1022 40.342 45.7207 40.0607 45.4394C39.7794 45.1581 39.3978 45.0001 39 45.0001H37.5V42.0001H39C39.3978 42.0001 39.7794 41.842 40.0607 41.5607C40.342 41.2794 40.5 40.8979 40.5 40.5001C40.5 40.1022 40.342 39.7207 40.0607 39.4394C39.7794 39.1581 39.3978 39.0001 39 39.0001H22.5C22.1022 39.0001 21.7206 39.1581 21.4393 39.4394C21.158 39.7207 21 40.1022 21 40.5001C21 40.8979 21.158 41.2794 21.4393 41.5607C21.7206 41.842 22.1022 42.0001 22.5 42.0001H24V45.0001H22.5C22.1022 45.0001 21.7206 45.1581 21.4393 45.4394C21.158 45.7207 21 46.1022 21 46.5001C21 46.8979 21.158 47.2794 21.4393 47.5607C21.7206 47.842 22.1022 48.0001 22.5 48.0001H24V51.0001H19.5C19.1022 51.0001 18.7206 51.1581 18.4393 51.4394C18.158 51.7207 18 52.1022 18 52.5001C18 52.8979 18.158 53.2794 18.4393 53.5607C18.7206 53.842 19.1022 54.0001 19.5 54.0001H58.5C58.8978 54.0001 59.2794 53.842 59.5607 53.5607C59.842 53.2794 60 52.8979 60 52.5001C60 52.1022 59.842 51.7207 59.5607 51.4394C59.2794 51.1581 58.8978 51.0001 58.5 51.0001ZM51 27.1876L55.0781 43.5001H46.9219L51 27.1876ZM27 42.0001H34.5V45.0001H27V42.0001ZM27 48.0001H34.5V51.0001H27V48.0001ZM36.75 33.0001C37.7884 33.0001 38.8034 32.6922 39.6667 32.1153C40.5301 31.5384 41.203 30.7185 41.6004 29.7592C41.9977 28.7998 42.1017 27.7442 41.8991 26.7258C41.6966 25.7074 41.1965 24.772 40.4623 24.0378C39.7281 23.3035 38.7926 22.8035 37.7742 22.6009C36.7558 22.3984 35.7002 22.5023 34.7409 22.8997C33.7816 23.2971 32.9617 23.97 32.3848 24.8333C31.8079 25.6967 31.5 26.7117 31.5 27.7501C31.5 29.1425 32.0531 30.4778 33.0377 31.4624C34.0223 32.4469 35.3576 33.0001 36.75 33.0001ZM36.75 25.5001C37.195 25.5001 37.63 25.632 38 25.8793C38.37 26.1265 38.6584 26.4779 38.8287 26.889C38.999 27.3002 39.0436 27.7526 38.9568 28.189C38.87 28.6255 38.6557 29.0264 38.341 29.3411C38.0263 29.6557 37.6254 29.87 37.189 29.9568C36.7525 30.0437 36.3001 29.9991 35.889 29.8288C35.4778 29.6585 35.1264 29.3701 34.8792 29.0001C34.632 28.6301 34.5 28.1951 34.5 27.7501C34.5 27.1533 34.7371 26.581 35.159 26.1591C35.581 25.7371 36.1533 25.5001 36.75 25.5001Z" fill="#ffffff"/>
</svg>
