<svg width="78" height="78" viewBox="0 0 78 78" fill="none" xmlns="http://www.w3.org/2000/svg">
<rect width="78" height="78" rx="39" fill="#30534A"/>
<path d="M52.4998 42H38.1186L38.5592 41.5594L42.3205 37.7981C43.8396 38.5632 45.5134 38.9711 47.2142 38.9906C48.9261 38.9951 50.606 38.5267 52.0686 37.6369C56.5161 34.9444 58.8992 28.7119 58.4436 20.9644C58.4221 20.5974 58.2667 20.2511 58.0068 19.9912C57.7469 19.7312 57.4005 19.5758 57.0336 19.5544C49.2861 19.1006 43.0536 21.4819 40.3611 25.9294C38.6061 28.8263 38.5611 32.325 40.198 35.6794L37.4998 38.3775L35.2105 36.0881C36.3355 33.6038 36.2548 31.0256 34.9498 28.8731C32.9117 25.5 28.2392 23.7019 22.4492 24.0413C22.0829 24.0631 21.7373 24.2184 21.4778 24.4779C21.2183 24.7374 21.0629 25.0831 21.0411 25.4494C20.6998 31.2375 22.4998 35.91 25.8748 37.95C27.0039 38.6394 28.3019 39.0029 29.6248 39C30.825 38.9881 32.0089 38.7203 33.0973 38.2144L35.3773 40.5L33.8773 42H25.4998C25.102 42 24.7205 42.158 24.4392 42.4393C24.1579 42.7206 23.9998 43.1022 23.9998 43.5C23.9998 43.8978 24.1579 44.2794 24.4392 44.5607C24.7205 44.842 25.102 45 25.4998 45H27.298L29.7748 56.1506C29.92 56.8185 30.2901 57.4162 30.8232 57.8439C31.3563 58.2715 32.0201 58.5031 32.7036 58.5H45.298C45.9814 58.5031 46.6452 58.2715 47.1783 57.8439C47.7114 57.4162 48.0815 56.8185 48.2267 56.1506L50.7036 45H52.4998C52.8977 45 53.2792 44.842 53.5605 44.5607C53.8418 44.2794 53.9998 43.8978 53.9998 43.5C53.9998 43.1022 53.8418 42.7206 53.5605 42.4393C53.2792 42.158 52.8977 42 52.4998 42ZM42.9373 27.4838C44.8986 24.2475 49.5448 22.4213 55.4998 22.5019C55.5767 28.4663 53.7542 33.1106 50.518 35.0644C48.3598 36.3769 45.7555 36.2906 43.153 34.8431C41.7036 32.25 41.6248 29.6419 42.9373 27.4838ZM32.2705 35.2706C30.5455 36.195 28.8373 36.2381 27.4273 35.3831C25.2711 34.0763 24.028 30.9956 23.9998 27C27.9955 27.0281 31.078 28.2713 32.383 30.4275C33.238 31.8375 33.1873 33.5456 32.2705 35.2706ZM45.298 55.5H32.7036L30.3748 45H47.6248L45.298 55.5Z" fill="#ffffff"/>
</svg>
