<svg width="78" height="78" viewBox="0 0 78 78" fill="none" xmlns="http://www.w3.org/2000/svg">
<rect width="78" height="78" rx="39" fill="#30534A"/>
<path d="M59.9997 38.7429C59.6572 34.8165 58.221 31.0647 55.854 27.9133C53.4869 24.7619 50.2839 22.3371 46.6084 20.9141C42.9329 19.4912 38.9321 19.127 35.0601 19.863C31.1881 20.599 27.5999 22.4056 24.7028 25.0779C20.8352 28.631 18.4457 33.5091 18.0091 38.7429C17.9735 39.1571 18.0244 39.5742 18.1585 39.9678C18.2927 40.3613 18.5071 40.7226 18.7883 41.0289C19.0695 41.3351 19.4113 41.5795 19.792 41.7467C20.1727 41.9138 20.5839 42 20.9997 41.9998H37.4997V52.4998C37.4997 54.0911 38.1318 55.6172 39.2571 56.7424C40.3823 57.8676 41.9084 58.4998 43.4997 58.4998C45.091 58.4998 46.6171 57.8676 47.7423 56.7424C48.8675 55.6172 49.4997 54.0911 49.4997 52.4998C49.4997 52.102 49.3417 51.7204 49.0604 51.4391C48.779 51.1578 48.3975 50.9998 47.9997 50.9998C47.6019 50.9998 47.2203 51.1578 46.939 51.4391C46.6577 51.7204 46.4997 52.102 46.4997 52.4998C46.4997 53.2954 46.1836 54.0585 45.621 54.6211C45.0584 55.1837 44.2953 55.4998 43.4997 55.4998C42.704 55.4998 41.941 55.1837 41.3784 54.6211C40.8158 54.0585 40.4997 53.2954 40.4997 52.4998V41.9998H56.9997C57.4162 42.0013 57.8285 41.9161 58.2103 41.7495C58.5921 41.5829 58.9351 41.3387 59.2173 41.0323C59.4995 40.7259 59.7148 40.3642 59.8495 39.97C59.9842 39.5758 60.0354 39.1579 59.9997 38.7429ZM20.9997 38.9998C21.3321 35.1357 22.9018 31.4819 25.4756 28.5808C28.0495 25.6796 31.4903 23.6858 35.2872 22.8954C33.0897 25.8748 30.3466 31.1454 30.0316 38.9998H20.9997ZM33.0278 38.9998C33.2884 33.2304 35.0022 29.0979 36.4591 26.5798C37.1774 25.3289 38.0293 24.1596 38.9997 23.0923C39.9683 24.1597 40.8183 25.329 41.5347 26.5798C44.0247 30.881 44.8122 35.4898 44.9659 38.9998H33.0278ZM47.9622 38.9998C47.6472 31.1454 44.9041 25.8748 42.7122 22.886C46.5116 23.6747 49.9548 25.6692 52.5292 28.5727C55.1035 31.4761 56.6715 35.1333 56.9997 38.9998H47.9622Z" fill="#ffffff"/>
</svg>
