<svg width="78" height="78" viewBox="0 0 78 78" fill="none" xmlns="http://www.w3.org/2000/svg">
<rect width="78" height="78" rx="39" fill="#30534A"/>
<path d="M47.625 23.9532C45.309 21.2784 42.7023 18.8698 39.8531 16.7719C39.6009 16.5953 39.3004 16.5005 38.9925 16.5005C38.6846 16.5005 38.3841 16.5953 38.1319 16.7719C35.288 18.8707 32.6863 21.2792 30.375 23.9532C25.2206 29.8726 22.5 36.1126 22.5 42.0001C22.5 46.3761 24.2384 50.573 27.3327 53.6673C30.4271 56.7617 34.6239 58.5001 39 58.5001C43.3761 58.5001 47.5729 56.7617 50.6673 53.6673C53.7616 50.573 55.5 46.3761 55.5 42.0001C55.5 36.1126 52.7794 29.8726 47.625 23.9532ZM50.2181 49.5001H27.7819C27.1591 48.5663 26.6552 47.5585 26.2819 46.5001H51.7256C51.3499 47.5589 50.8435 48.5667 50.2181 49.5001ZM52.5 42.0001C52.4997 42.5013 52.4709 43.0021 52.4137 43.5001H25.5862C25.5291 43.0021 25.5003 42.5013 25.5 42.0001C25.5 41.5001 25.5225 41.0001 25.5675 40.5001H52.4325C52.4775 41.0001 52.5 41.5001 52.5 42.0001ZM39 19.8751C41.655 21.9563 49.6612 28.8263 51.9075 37.5001H26.0925C28.3387 28.8301 36.345 21.9601 39 19.8751ZM30.5269 52.5001H47.4731C45.0757 54.4409 42.0846 55.4999 39 55.4999C35.9154 55.4999 32.9243 54.4409 30.5269 52.5001Z" fill="#ffffff"/>
</svg>
