<svg width="78" height="78" viewBox="0 0 78 78" fill="none" xmlns="http://www.w3.org/2000/svg">
<rect width="78" height="78" rx="39" fill="#30534A"/>
<path d="M58.5 34.5H54V25.5H58.5C58.8978 25.5 59.2794 25.342 59.5607 25.0607C59.842 24.7794 60 24.3978 60 24C60 23.6022 59.842 23.2206 59.5607 22.9393C59.2794 22.658 58.8978 22.5 58.5 22.5H53.5931C53.3302 22.0447 52.9523 21.6664 52.4972 21.4032C52.0421 21.1399 51.5258 21.0009 51 21H48C47.4742 21.0009 46.9579 21.1399 46.5028 21.4032C46.0477 21.6664 45.6698 22.0447 45.4069 22.5H42C36.83 22.5055 31.8732 24.5617 28.2174 28.2174C24.5617 31.8732 22.5055 36.83 22.5 42V45.405C22.0444 45.668 21.666 46.0463 21.4027 46.5017C21.1394 46.9572 21.0005 47.4739 21 48V51C21.0005 51.5261 21.1394 52.0428 21.4027 52.4983C21.666 52.9537 22.0444 53.332 22.5 53.595V58.5C22.5 58.8978 22.658 59.2794 22.9393 59.5607C23.2206 59.842 23.6022 60 24 60C24.3978 60 24.7794 59.842 25.0607 59.5607C25.342 59.2794 25.5 58.8978 25.5 58.5V54H34.5V58.5C34.5 58.8978 34.658 59.2794 34.9393 59.5607C35.2206 59.842 35.6022 60 36 60C36.3978 60 36.7794 59.842 37.0607 59.5607C37.342 59.2794 37.5 58.8978 37.5 58.5V53.595C37.9556 53.332 38.334 52.9537 38.5973 52.4983C38.8606 52.0428 38.9995 51.5261 39 51V48C38.9995 47.4739 38.8606 46.9572 38.5973 46.5017C38.334 46.0463 37.9556 45.668 37.5 45.405V42C37.5 40.8065 37.9741 39.6619 38.818 38.818C39.6619 37.9741 40.8065 37.5 42 37.5H45.4069C45.6698 37.9553 46.0477 38.3336 46.5028 38.5968C46.9579 38.8601 47.4742 38.9991 48 39H51C51.5258 38.9991 52.0421 38.8601 52.4972 38.5968C52.9523 38.3336 53.3302 37.9553 53.5931 37.5H58.5C58.8978 37.5 59.2794 37.342 59.5607 37.0607C59.842 36.7794 60 36.3978 60 36C60 35.6022 59.842 35.2206 59.5607 34.9393C59.2794 34.658 58.8978 34.5 58.5 34.5ZM36 48V51H24V48H36ZM34.5 42V45H25.5V42C25.505 37.6255 27.2449 33.4315 30.3382 30.3382C33.4315 27.2449 37.6255 25.505 42 25.5H45V34.5H42C40.0109 34.5 38.1032 35.2902 36.6967 36.6967C35.2902 38.1032 34.5 40.0109 34.5 42ZM48 36V24H51V35.9625C51 35.9756 51 35.9869 51 36H48Z" fill="#ffffff"/>
</svg>
