<svg width="56" height="56" viewBox="0 0 56 56" fill="none" xmlns="http://www.w3.org/2000/svg">
<path d="M53.227 25.5256L49.727 22.0256C49.1334 21.4327 48.3465 21.0728 47.5098 21.0113C46.673 20.9499 45.842 21.1911 45.1682 21.691L34.3095 10.8322C34.8096 10.1586 35.0512 9.3278 34.9901 8.49106C34.9291 7.65431 34.5696 6.86733 33.977 6.27345L30.477 2.77346C30.1519 2.44837 29.7661 2.19049 29.3414 2.01454C28.9167 1.8386 28.4615 1.74805 28.0018 1.74805C27.5421 1.74805 27.0869 1.8386 26.6622 2.01454C26.2375 2.19049 25.8517 2.44837 25.5266 2.77346L11.5266 16.7735C11.2016 17.0985 10.9437 17.4843 10.7677 17.909C10.5918 18.3337 10.5012 18.7889 10.5012 19.2486C10.5012 19.7083 10.5918 20.1635 10.7677 20.5882C10.9437 21.0129 11.2016 21.3987 11.5266 21.7238L15.0266 25.2238C15.6204 25.8158 16.4069 26.175 17.2432 26.236C18.0794 26.297 18.9098 26.0558 19.5832 25.5563L21.1516 27.1247L6.84976 41.4266C5.8996 42.4657 5.38688 43.8314 5.41836 45.2391C5.44984 46.6468 6.02309 47.9882 7.01875 48.9838C8.01442 49.9795 9.35576 50.5527 10.7635 50.5842C12.1712 50.6157 13.5368 50.103 14.576 49.1528L28.8757 34.8509L30.4441 36.4172C29.944 37.0908 29.7024 37.9216 29.7635 38.7583C29.8245 39.5951 30.184 40.3821 30.7766 40.9759L34.2766 44.4759C34.6017 44.801 34.9875 45.0589 35.4122 45.2349C35.8369 45.4108 36.2921 45.5014 36.7518 45.5014C37.2115 45.5014 37.6667 45.4108 38.0914 45.2349C38.5161 45.0589 38.9019 44.801 39.227 44.4759L53.227 30.476C53.5521 30.1509 53.8099 29.7651 53.9859 29.3404C54.1618 28.9157 54.2524 28.4605 54.2524 28.0008C54.2524 27.5411 54.1618 27.0859 53.9859 26.6612C53.8099 26.2365 53.5521 25.8507 53.227 25.5256ZM17.5007 22.7497L14.0007 19.2497L28.0007 5.2497L31.5007 8.7497L17.5007 22.7497ZM12.102 46.6766C11.7331 47.0433 11.2341 47.2491 10.714 47.2491C10.1939 47.2491 9.69489 47.0433 9.32602 46.6766C8.96 46.3078 8.7546 45.8093 8.7546 45.2897C8.7546 44.7701 8.96 44.2716 9.32602 43.9028L23.6257 29.601L26.4016 32.3747L12.102 46.6766ZM22.0945 23.1128L31.8638 13.3435L42.657 24.1366L32.8898 33.9059L22.0945 23.1128ZM36.7507 41.9997L33.2507 38.4997L34.1257 37.6247L46.3757 25.3747L47.2507 24.4997L50.7507 27.9997L36.7507 41.9997Z" fill="#FFFFFF"/>
</svg>
