<svg width="56" height="56" viewBox="0 0 56 56" fill="none" xmlns="http://www.w3.org/2000/svg">
<g clip-path="url(#clip0_248_476)">
<path d="M50.3847 30.8569C49.7335 30.3558 48.9755 30.0117 48.1697 29.8512C47.3639 29.6908 46.5319 29.7182 45.7384 29.9316L36.5859 32.0359C36.7989 31.1364 36.8055 30.2004 36.6052 29.298C36.4049 28.3955 36.003 27.5501 35.4295 26.8252C34.856 26.1002 34.1259 25.5144 33.2938 25.1117C32.4618 24.709 31.5494 24.4999 30.625 24.5H19.6744C18.7547 24.4977 17.8438 24.6776 16.9941 25.0295C16.1444 25.3813 15.3729 25.898 14.7241 26.5497L9.77594 31.5H3.5C2.57174 31.5 1.6815 31.8688 1.02513 32.5251C0.368749 33.1815 0 34.0717 0 35L0 43.75C0 44.6783 0.368749 45.5685 1.02513 46.2249C1.6815 46.8813 2.57174 47.25 3.5 47.25H26.25C26.3931 47.2501 26.5356 47.2324 26.6744 47.1975L40.6744 43.6975C40.7636 43.6763 40.8507 43.647 40.9347 43.61L49.4375 39.9919L49.5338 39.9481C50.3509 39.5398 51.0507 38.9301 51.5672 38.1766C52.0836 37.4231 52.3997 36.5505 52.4857 35.641C52.5717 34.7315 52.4248 33.8151 52.0587 32.9782C51.6927 32.1412 51.1196 31.4112 50.3934 30.8569H50.3847ZM3.5 35H8.75V43.75H3.5V35ZM48.0003 36.7959L39.6878 40.3353L26.0312 43.75H12.25V33.9741L17.2003 29.0259C17.5241 28.6995 17.9096 28.4407 18.3344 28.2646C18.7591 28.0885 19.2146 27.9985 19.6744 28H30.625C31.3212 28 31.9889 28.2766 32.4812 28.7688C32.9734 29.2611 33.25 29.9288 33.25 30.625C33.25 31.3212 32.9734 31.9889 32.4812 32.4812C31.9889 32.9734 31.3212 33.25 30.625 33.25H24.5C24.0359 33.25 23.5908 33.4344 23.2626 33.7626C22.9344 34.0908 22.75 34.5359 22.75 35C22.75 35.4641 22.9344 35.9093 23.2626 36.2374C23.5908 36.5656 24.0359 36.75 24.5 36.75H31.5C31.6317 36.7496 31.763 36.735 31.8916 36.7063L46.5478 33.3353L46.6156 33.3178C47.063 33.1936 47.5406 33.2393 47.9564 33.446C48.3721 33.6527 48.6968 34.0058 48.8678 34.4375C49.0389 34.8692 49.0442 35.3489 48.8829 35.7843C48.7215 36.2197 48.4048 36.58 47.9937 36.7959H48.0003ZM35.875 21C36.3074 21.0005 36.739 20.9654 37.1656 20.895C37.6455 22.3203 38.5234 23.5783 39.6955 24.5204C40.8677 25.4626 42.2851 26.0494 43.7802 26.2115C45.2753 26.3735 46.7856 26.1042 48.1324 25.4351C49.4792 24.7661 50.6064 23.7254 51.3805 22.4361C52.1546 21.1468 52.5434 19.6628 52.5009 18.1595C52.4583 16.6563 51.9862 15.1966 51.1404 13.9532C50.2946 12.7097 49.1104 11.7345 47.7279 11.1427C46.3454 10.5509 44.8223 10.3674 43.3387 10.6138C42.8767 9.24054 42.0448 8.02141 40.9346 7.09052C39.8244 6.15962 38.4788 5.55306 37.0461 5.33758C35.6133 5.1221 34.1489 5.30606 32.814 5.86921C31.4791 6.43235 30.3254 7.35286 29.4799 8.52942C28.6344 9.70599 28.1298 11.093 28.0218 12.5378C27.9138 13.9826 28.2064 15.4293 28.8676 16.7185C29.5287 18.0077 30.5327 19.0895 31.769 19.8449C33.0054 20.6003 34.4261 21 35.875 21ZM49 18.375C49 19.2403 48.7434 20.0862 48.2627 20.8056C47.7819 21.5251 47.0987 22.0858 46.2992 22.417C45.4998 22.7481 44.6201 22.8347 43.7715 22.6659C42.9228 22.4971 42.1433 22.0805 41.5314 21.4686C40.9196 20.8567 40.5029 20.0772 40.3341 19.2285C40.1653 18.3799 40.2519 17.5002 40.583 16.7008C40.9142 15.9013 41.4749 15.2181 42.1944 14.7373C42.9138 14.2566 43.7597 14 44.625 14C45.7853 14 46.8981 14.4609 47.7186 15.2814C48.5391 16.1019 49 17.2147 49 18.375ZM35.875 8.75C36.8294 8.75048 37.7575 9.06305 38.5178 9.64005C39.278 10.2171 39.8287 11.0268 40.0859 11.9459C39.1897 12.5766 38.4349 13.3874 37.8699 14.3264C37.3048 15.2655 36.9421 16.3121 36.8047 17.3994C36.4992 17.4654 36.1876 17.4991 35.875 17.5C34.7147 17.5 33.6019 17.0391 32.7814 16.2186C31.9609 15.3981 31.5 14.2853 31.5 13.125C31.5 11.9647 31.9609 10.8519 32.7814 10.0314C33.6019 9.21094 34.7147 8.75 35.875 8.75Z" fill="#FFFFFF"/>
</g>
<defs>
<clipPath id="clip0_248_476">
<rect width="56" height="56" fill="white"/>
</clipPath>
</defs>
</svg>
