<svg width="56" height="56" viewBox="0 0 56 56" fill="none" xmlns="http://www.w3.org/2000/svg">
<path d="M52.5 40.2501H50.75V12.6657L52.8653 12.2107C53.0949 12.1677 53.3135 12.0791 53.5083 11.9502C53.7031 11.8213 53.8702 11.6547 53.9996 11.4603C54.129 11.2658 54.2182 11.0474 54.2619 10.818C54.3055 10.5885 54.3028 10.3526 54.2539 10.1242C54.205 9.89579 54.1108 9.67949 53.977 9.48805C53.8432 9.29661 53.6724 9.13389 53.4747 9.0095C53.2769 8.88511 53.0563 8.80156 52.8258 8.76377C52.5953 8.72599 52.3596 8.73473 52.1325 8.78948L3.1325 19.2895C2.71037 19.3806 2.33682 19.6245 2.08371 19.9744C1.83061 20.3243 1.71581 20.7555 1.76142 21.1849C1.80702 21.6143 2.0098 22.0118 2.33075 22.3007C2.6517 22.5896 3.06815 22.7497 3.5 22.7501C3.62426 22.7499 3.74816 22.7367 3.86969 22.7107L5.25 22.4154V40.2501H3.5C3.03587 40.2501 2.59075 40.4345 2.26256 40.7627C1.93437 41.0909 1.75 41.536 1.75 42.0001C1.75 42.4642 1.93437 42.9094 2.26256 43.2375C2.59075 43.5657 3.03587 43.7501 3.5 43.7501H52.5C52.9641 43.7501 53.4092 43.5657 53.7374 43.2375C54.0656 42.9094 54.25 42.4642 54.25 42.0001C54.25 41.536 54.0656 41.0909 53.7374 40.7627C53.4092 40.4345 52.9641 40.2501 52.5 40.2501ZM8.75 21.6564L47.25 13.416V40.2501H42V28.0001C42 27.536 41.8156 27.0909 41.4874 26.7627C41.1592 26.4345 40.7141 26.2501 40.25 26.2501H15.75C15.2859 26.2501 14.8408 26.4345 14.5126 26.7627C14.1844 27.0909 14 27.536 14 28.0001V40.2501H8.75V21.6564ZM38.5 33.2501H17.5V29.7501H38.5V33.2501ZM17.5 36.7501H38.5V40.2501H17.5V36.7501Z" fill="#FFFFFF"/>
</svg>
