<svg width="40" height="40" viewBox="0 0 40 40" fill="none" xmlns="http://www.w3.org/2000/svg">
<path d="M32.5 8.74953C30.7972 8.74951 29.1095 9.06746 27.5234 9.68703C25.2859 5.0464 20.7656 2.74015 20.5594 2.63703C20.3857 2.55013 20.1942 2.50488 20 2.50488C19.8058 2.50488 19.6143 2.55013 19.4406 2.63703C19.2328 2.74015 14.7141 5.0464 12.4766 9.68703C10.8905 9.06746 9.20275 8.74951 7.5 8.74953C7.16848 8.74953 6.85054 8.88123 6.61612 9.11565C6.3817 9.35007 6.25 9.66801 6.25 9.99953V22.4995C6.25 26.1463 7.69866 29.6436 10.2773 32.2223C12.8559 34.8009 16.3533 36.2495 20 36.2495C23.6467 36.2495 27.1441 34.8009 29.7227 32.2223C32.3013 29.6436 33.75 26.1463 33.75 22.4995V9.99953C33.75 9.66801 33.6183 9.35007 33.3839 9.11565C33.1495 8.88123 32.8315 8.74953 32.5 8.74953ZM18.75 33.6808C16.0011 33.37 13.4626 32.0586 11.6184 29.9966C9.77421 27.9345 8.75321 25.266 8.75 22.4995V20.0683C11.4989 20.3791 14.0374 21.6905 15.8816 23.7525C17.7258 25.8146 18.7468 28.4831 18.75 31.2495V33.6808ZM18.75 23.3527C17.6037 21.7188 16.1154 20.354 14.3885 19.3533C12.6616 18.3525 10.7376 17.7397 8.75 17.5573V11.3183C11.4989 11.6291 14.0374 12.9405 15.8816 15.0025C17.7258 17.0646 18.7468 19.7331 18.75 22.4995V23.3527ZM14.7109 10.798C16.1516 7.7964 18.8375 5.90265 20 5.18859C21.1625 5.90422 23.8484 7.79797 25.2875 10.798C22.9767 12.2281 21.1378 14.3066 20 16.7745C18.8621 14.3062 17.0226 12.2275 14.7109 10.798ZM31.25 22.4995C31.2468 25.266 30.2258 27.9345 28.3816 29.9966C26.5374 32.0586 23.9989 33.37 21.25 33.6808V31.2495C21.2532 28.4831 22.2742 25.8146 24.1184 23.7525C25.9626 21.6905 28.5011 20.3791 31.25 20.0683V22.4995ZM31.25 17.5573C29.2624 17.7397 27.3384 18.3525 25.6115 19.3533C23.8846 20.354 22.3963 21.7188 21.25 23.3527V22.4995C21.2532 19.7331 22.2742 17.0646 24.1184 15.0025C25.9626 12.9405 28.5011 11.6291 31.25 11.3183V17.5573Z" fill="#FFFFFF"/>
</svg>
