<svg width="48" height="48" viewBox="0 0 48 48" fill="none" xmlns="http://www.w3.org/2000/svg">
<path d="M32.7975 29.2504C30.8681 32.586 27.6619 34.5004 24 34.5004C20.3381 34.5004 17.1319 32.5879 15.2006 29.2504C15.1021 29.0798 15.0382 28.8914 15.0125 28.696C14.9868 28.5007 14.9999 28.3022 15.0509 28.1119C15.1019 27.9216 15.1899 27.7432 15.3098 27.5869C15.4298 27.4306 15.5794 27.2995 15.75 27.201C15.9206 27.1025 16.109 27.0386 16.3043 27.0129C16.4997 26.9872 16.6982 27.0002 16.8885 27.0513C17.0788 27.1023 17.2572 27.1903 17.4135 27.3102C17.5697 27.4302 17.7009 27.5798 17.7994 27.7504C19.1981 30.171 21.3994 31.5004 24 31.5004C26.6006 31.5004 28.8019 30.1691 30.2025 27.7504C30.2963 27.5711 30.4253 27.4127 30.5819 27.2846C30.7385 27.1565 30.9194 27.0614 31.1137 27.0051C31.308 26.9487 31.5117 26.9322 31.7125 26.9566C31.9133 26.981 32.1071 27.0458 32.2823 27.147C32.4574 27.2483 32.6103 27.3839 32.7317 27.5457C32.853 27.7076 32.9404 27.8923 32.9886 28.0888C33.0367 28.2853 33.0446 28.4895 33.0117 28.6891C32.9789 28.8887 32.906 29.0797 32.7975 29.2504ZM43.5 24.0004C43.5009 25.9422 43.2128 27.8734 42.645 29.7304C42.5726 29.9648 42.4439 30.1779 42.27 30.351L30.3506 42.2704C30.1785 42.4446 29.966 42.5735 29.7319 42.6454C25.8086 43.8519 21.6047 43.7897 17.719 42.4676C13.8332 41.1455 10.4636 38.6309 8.0903 35.2821C5.71697 31.9333 4.46088 27.9209 4.50093 23.8166C4.54098 19.7122 5.87513 15.7251 8.31335 12.4233C10.7516 9.12138 14.1695 6.67307 18.0804 5.42706C21.9912 4.18104 26.1956 4.20086 30.0945 5.48368C33.9934 6.76651 37.3882 9.24694 39.7951 12.5717C42.2021 15.8964 43.4986 19.8958 43.5 24.0004ZM40.5 24.0004C40.4957 20.5485 39.4076 17.1851 37.3892 14.3849C35.3708 11.5846 32.524 9.48889 29.2506 8.39339C25.9772 7.2979 22.4424 7.25797 19.1451 8.27923C15.8477 9.3005 12.9543 11.3314 10.8732 14.0854C8.79203 16.8393 7.62821 20.1772 7.54594 23.6281C7.46368 27.079 8.46713 30.4686 10.4147 33.3186C12.3622 36.1686 15.1556 38.335 18.4005 39.5123C21.6454 40.6895 25.1781 40.818 28.5 39.8798L39.8794 28.5004C40.2926 27.0362 40.5015 25.5218 40.5 24.0004ZM17.25 22.5004C17.695 22.5004 18.13 22.3684 18.5 22.1212C18.87 21.874 19.1584 21.5226 19.3287 21.1114C19.499 20.7003 19.5436 20.2479 19.4568 19.8114C19.37 19.375 19.1557 18.9741 18.841 18.6594C18.5263 18.3447 18.1254 18.1304 17.689 18.0436C17.2525 17.9568 16.8001 18.0014 16.389 18.1717C15.9778 18.342 15.6264 18.6303 15.3792 19.0004C15.132 19.3704 15 19.8054 15 20.2504C15 20.8471 15.2371 21.4194 15.659 21.8414C16.081 22.2633 16.6533 22.5004 17.25 22.5004ZM30.75 18.0004C30.305 18.0004 29.87 18.1323 29.5 18.3796C29.13 18.6268 28.8416 18.9782 28.6713 19.3894C28.501 19.8005 28.4564 20.2529 28.5432 20.6893C28.63 21.1258 28.8443 21.5267 29.159 21.8414C29.4737 22.156 29.8746 22.3703 30.311 22.4572C30.7475 22.544 31.1999 22.4994 31.611 22.3291C32.0222 22.1588 32.3736 21.8704 32.6208 21.5004C32.868 21.1304 33 20.6954 33 20.2504C33 19.6537 32.7629 19.0814 32.341 18.6594C31.919 18.2374 31.3467 18.0004 30.75 18.0004Z" fill="#ffffff"/>
</svg>
