<svg width="16" height="17" viewBox="0 0 16 17" fill="none" xmlns="http://www.w3.org/2000/svg">
<path d="M8 1.94578C10.1205 1.94578 10.4096 1.94578 11.2771 1.94578C12.0482 1.94578 12.4337 2.13855 12.7229 2.23494C13.1084 2.42771 13.3976 2.5241 13.6867 2.81325C13.9759 3.10241 14.1687 3.39157 14.2651 3.77711C14.3614 4.06627 14.4578 4.45181 14.5542 5.22289C14.5542 6.09036 14.5542 6.28313 14.5542 8.5C14.5542 10.7169 14.5542 10.9096 14.5542 11.7771C14.5542 12.5482 14.3614 12.9337 14.2651 13.2229C14.0723 13.6084 13.9759 13.8976 13.6867 14.1867C13.3976 14.4759 13.1084 14.6687 12.7229 14.7651C12.4337 14.8614 12.0482 14.9578 11.2771 15.0542C10.4096 15.0542 10.2169 15.0542 8 15.0542C5.78313 15.0542 5.59036 15.0542 4.72289 15.0542C3.95181 15.0542 3.56627 14.8614 3.27711 14.7651C2.89157 14.5723 2.60241 14.4759 2.31325 14.1867C2.0241 13.8976 1.83133 13.6084 1.73494 13.2229C1.63855 12.9337 1.54217 12.5482 1.44578 11.7771C1.44578 10.9096 1.44578 10.7169 1.44578 8.5C1.44578 6.28313 1.44578 6.09036 1.44578 5.22289C1.44578 4.45181 1.63855 4.06627 1.73494 3.77711C1.92771 3.39157 2.0241 3.10241 2.31325 2.81325C2.60241 2.5241 2.89157 2.33133 3.27711 2.23494C3.56627 2.13855 3.95181 2.04217 4.72289 1.94578C5.59036 1.94578 5.87952 1.94578 8 1.94578ZM8 0.5C5.78313 0.5 5.59036 0.5 4.72289 0.5C3.85542 0.5 3.27711 0.692772 2.79518 0.885543C2.31325 1.07831 1.83133 1.36747 1.3494 1.8494C0.867471 2.33133 0.674699 2.71687 0.385543 3.29518C0.192772 3.77711 0.0963856 4.35542 0 5.22289C0 6.09036 0 6.37952 0 8.5C0 10.7169 0 10.9096 0 11.7771C0 12.6446 0.192772 13.2229 0.385543 13.7048C0.578314 14.1867 0.867471 14.6687 1.3494 15.1506C1.83133 15.6325 2.21687 15.8253 2.79518 16.1145C3.27711 16.3072 3.85542 16.4036 4.72289 16.5C5.59036 16.5 5.87952 16.5 8 16.5C10.1205 16.5 10.4096 16.5 11.2771 16.5C12.1446 16.5 12.7229 16.3072 13.2048 16.1145C13.6867 15.9217 14.1687 15.6325 14.6506 15.1506C15.1325 14.6687 15.3253 14.2831 15.6145 13.7048C15.8072 13.2229 15.9036 12.6446 16 11.7771C16 10.9096 16 10.6205 16 8.5C16 6.37952 16 6.09036 16 5.22289C16 4.35542 15.8072 3.77711 15.6145 3.29518C15.4217 2.81325 15.1325 2.33133 14.6506 1.8494C14.1687 1.36747 13.7831 1.1747 13.2048 0.885543C12.7229 0.692772 12.1446 0.596386 11.2771 0.5C10.4096 0.5 10.2169 0.5 8 0.5Z" fill="#D0D4D2"/>
<path d="M8 4.35542C5.68675 4.35542 3.85542 6.18675 3.85542 8.5C3.85542 10.8133 5.68675 12.6446 8 12.6446C10.3133 12.6446 12.1446 10.8133 12.1446 8.5C12.1446 6.18675 10.3133 4.35542 8 4.35542ZM8 11.1988C6.55422 11.1988 5.30121 10.0422 5.30121 8.5C5.30121 7.05422 6.45783 5.80121 8 5.80121C9.44578 5.80121 10.6988 6.95783 10.6988 8.5C10.6988 9.94578 9.44578 11.1988 8 11.1988Z" fill="#D0D4D2"/>
<path d="M12.241 5.22289C12.7733 5.22289 13.2048 4.79136 13.2048 4.25904C13.2048 3.72671 12.7733 3.29518 12.241 3.29518C11.7086 3.29518 11.2771 3.72671 11.2771 4.25904C11.2771 4.79136 11.7086 5.22289 12.241 5.22289Z" fill="#D0D4D2"/>
</svg>
