<svg width="78" height="78" viewBox="0 0 78 78" fill="none" xmlns="http://www.w3.org/2000/svg">
<rect width="78" height="78" rx="39" fill="#FFFFFF"/>
<path d="M58.7341 35.8607L54.7466 27.8826C54.5997 27.589 54.3964 27.3271 54.1483 27.112C53.9002 26.897 53.6121 26.7329 53.3006 26.6291C52.9891 26.5254 52.6602 26.484 52.3327 26.5074C52.0052 26.5308 51.6855 26.6185 51.3919 26.7654L47.5059 28.7076L39.32 26.542C39.11 26.4873 38.8894 26.4873 38.6794 26.542L30.4934 28.7076L26.6075 26.7654C26.3139 26.6185 25.9942 26.5308 25.6667 26.5074C25.3392 26.484 25.0103 26.5254 24.6988 26.6291C24.3872 26.7329 24.0992 26.897 23.8511 27.112C23.603 27.3271 23.3997 27.589 23.2528 27.8826L19.2653 35.8592C19.1184 36.1528 19.0307 36.4725 19.0073 36.8C18.9839 37.1275 19.0253 37.4564 19.129 37.7679C19.2328 38.0794 19.3969 38.3675 19.612 38.6156C19.827 38.8637 20.0889 39.067 20.3825 39.2138L24.6013 41.3248L33.2716 47.517C33.3993 47.6079 33.5429 47.6741 33.695 47.7123L43.695 50.2123C43.9044 50.2648 44.1239 50.2622 44.332 50.2047C44.5401 50.1472 44.7298 50.0368 44.8825 49.8842L53.4872 41.2779L57.6153 39.2138C58.208 38.9172 58.6585 38.3973 58.868 37.7686C59.0775 37.1398 59.0288 36.4536 58.7325 35.8607H58.7341ZM50.1575 41.0748L44.7809 36.7685C44.5401 36.5756 44.2364 36.4787 43.9283 36.4963C43.6202 36.5139 43.3295 36.6448 43.1122 36.8638C40.3294 39.667 37.2278 39.3123 35.2497 38.0623L42.0059 31.4998H46.9763L51.2278 40.0013L50.1575 41.0748ZM25.4888 28.9998L28.6872 30.5967L24.6919 38.5732L21.4997 36.9779L25.4888 28.9998ZM43.6138 47.6138L34.5341 45.3451L26.8466 39.8545L31.2216 31.1045L38.9997 29.0435L40.5309 29.4482L33.4997 36.2732L33.4872 36.2873C33.2225 36.552 33.0206 36.8727 32.8965 37.2258C32.7723 37.5789 32.729 37.9554 32.7698 38.3275C32.8106 38.6996 32.9345 39.0578 33.1322 39.3756C33.3299 39.6934 33.5965 39.9628 33.9122 40.1638C37.1247 42.2154 41.0013 41.8826 44.0544 39.3826L48.3747 42.8529L43.6138 47.6138ZM53.3013 38.5717L49.3138 30.6029L52.5106 28.9998L56.4997 36.9779L53.3013 38.5717ZM39.5903 53.0513C39.5228 53.3215 39.367 53.5614 39.1476 53.7329C38.9282 53.9045 38.6579 53.9978 38.3794 53.9982C38.2767 53.9981 38.1744 53.9855 38.0747 53.9607L31.5638 52.3326C31.4115 52.295 31.2677 52.2287 31.1403 52.1373L27.0231 49.1967C26.77 48.9979 26.6032 48.7091 26.5577 48.3905C26.5121 48.0719 26.5912 47.748 26.7784 47.4862C26.9657 47.2244 27.2467 47.045 27.563 46.9852C27.8793 46.9255 28.2064 46.99 28.4763 47.1654L32.3997 49.9685L38.6872 51.5373C39.0087 51.6177 39.2852 51.8226 39.4557 52.1068C39.6262 52.391 39.6769 52.7313 39.5966 53.0529L39.5903 53.0513Z" fill="#30534A"/>
</svg>
