<svg width="22" height="17" viewBox="0 0 22 17" fill="none" xmlns="http://www.w3.org/2000/svg">
<path d="M21.45 2.92857C21.175 1.92857 20.4875 1.21429 19.525 0.928572C17.875 0.5 10.8625 0.5 10.8625 0.5C10.8625 0.5 3.98751 0.5 2.20001 0.928572C1.23751 1.21429 0.549996 1.92857 0.274996 2.92857C-4.20026e-06 4.78572 0 8.5 0 8.5C0 8.5 4.17978e-06 12.2143 0.412504 14.0714C0.687504 15.0714 1.375 15.7857 2.3375 16.0714C3.9875 16.5 11 16.5 11 16.5C11 16.5 17.875 16.5 19.6625 16.0714C20.625 15.7857 21.3125 15.0714 21.5875 14.0714C22 12.2143 22 8.5 22 8.5C22 8.5 22 4.78572 21.45 2.92857ZM8.79999 11.9286V5.07143L14.575 8.5L8.79999 11.9286Z" fill="#D0D4D2"/>
</svg>
